<?xml version="1.0" encoding="utf-8"?>
<!-- Generator: Adobe Illustrator 22.0.1, SVG Export Plug-In . SVG Version: 6.00 Build 0)  -->
<svg version="1.1" id="Calque_1" xmlns="http://www.w3.org/2000/svg" xmlns:xlink="http://www.w3.org/1999/xlink" x="0px" y="0px"
	 viewBox="0 0 1776 1776.1" style="enable-background:new 0 0 1776 1776.1;" xml:space="preserve">
<style type="text/css">
	.st0{fill:#242424;}
</style>
<g transform="translate(-102.500000,1897.616726) rotate(-360.00) scale(0.095238,-0.095238)">
	<path class="st0" d="M4260.5,18162.1c-601.8-53.6-1139.1-430.9-1396.7-980.6c-71-151-117.2-304.6-144.4-478
		c-14.8-90.8-15.6-416.8-15.6-6241.3c0-5859.9,0.8-6148.8,15.6-6231.4c36.4-201.4,87.5-359,167.6-517.6
		c256.8-504.4,747-851.8,1307.5-927c71.8-9.9,1130.9-11.6,6219-11.6c5897,0,6135.6,0,6223.1,15.6c210.4,36.4,364.8,86.6,526.6,170.8
		c238.6,124.6,420.2,275.7,582,484.6c175.8,228.6,281.4,476.3,336,789.2c15.6,87.5,15.6,326,15.6,6223.1
		c0,5088.1-1.6,6147.2-11.6,6219c-75.2,560.5-422.6,1050.8-927,1307.5c-156.8,79.2-308.8,128.8-513.4,167.6
		c-78.4,14.8-369,15.6-6192.6,16.6C7091.8,18169.5,4305.1,18166.1,4260.5,18162.1z M8411.8,13743.4
		c497-19.8,833.7-101.6,1133.4-276.6c236.9-138.6,488.6-429.2,605.9-699.2c104-238.6,146.1-476.3,138.6-775.1
		c-5-210.4-24.8-335.2-75.2-486.2c-56.2-169.2-95.8-235.2-259.2-432.6c-102.4-124.6-189.8-194.8-359-286.4
		c-46.2-25.6-84.2-48.7-84.2-51.2c0-3.3,14.8-13.2,32.2-22.2c292.2-155.2,397.8-226.2,532.4-359.9
		c129.6-128.8,208.8-251,287.2-441.6c101.6-249.2,138.6-443.2,138.6-719.8c0-234.4-24-397-85-586c-36.4-109-122.2-291.4-184-390.4
		c-23.2-37.2-58.6-95-77.6-128.8c-80-137.8-195.6-268.2-353.3-398.7c-328.6-271.6-658.7-386.3-1356.2-472.2
		c-179.2-22.2-547.2-26.4-1915.9-24l-1417.3,2.4l-1.6,3267.1c-1.6,1797-0.8,3272.9,1.6,3278.7c3.3,8.2,326.8,10.8,1545.2,10.8
		C7505.4,13751.6,8294.6,13747.5,8411.8,13743.4z M14686.8,13166.4v-316.2h-1322.4h-1321.6v316.2v317h1321.6h1322.4V13166.4z
		 M13613,12260.9c467.2-31.4,780-128.8,1101.2-340.9c140.4-93.2,188.2-132,308.8-251c270.8-267.4,461.4-610.8,564.6-1017
		c19-76.8,71.8-358.2,87.5-467.2c5-38,11.6-226.2,14-417.6l5-349.2h-1717h-1717v-33c0-42.1,29.8-210.4,52-291.4
		c72.6-270.8,197.2-487.8,365.6-638c152.7-136.2,528.3-222,862.6-198.1c213,14.8,373.1,62.8,492,147c33,23.2,88.4,61.9,122.2,85.8
		c33.8,23.2,79.2,62.8,100.7,87.5c39.6,45.4,98.2,142.8,107.3,178.3l5,20.6l633.2,1.6c472.2,2.4,634,0,636.4-7.4
		c6.6-16.5-45.4-203-82.6-297.2c-41.2-104.8-107.3-226.2-167.6-307.9c-55.3-74.2-352.4-371.4-451.6-450.7
		c-326.8-263.4-730.6-413.6-1227.4-456.4c-149.4-12.4-537.4-5-655.4,13.2c-450.7,68.6-824.6,219.6-1258,509.3
		c-222.8,148.6-405.3,369.8-526.6,639.8c-157.6,347.5-230.3,764.4-230.3,1311.6c0,981.4,279,1663.3,855.2,2091.7
		c274,203.8,600.1,339.2,965,401.2C13097.1,12265.8,13356.2,12278.2,13613,12260.9z"/>
	<path class="st0" d="M6647,12633.9c-2.4-1.6-3.3-334.3-3.3-738.8v-736.3l803.2,4.2c865.1,3.3,826.3,1.6,1011.2,49.6
		c254.2,66,397.8,194.8,473,423.4c26.4,83.4,34.6,148.6,34.6,278.2c0,225.4-51.2,374-168.4,489.5
		c-108.2,106.4-242.6,158.4-531.6,205.6c-114,18.2-148.6,19-866.8,24C6987,12635.6,6648.6,12636.4,6647,12633.9z"/>
	<path class="st0" d="M6643.6,9179.4v-870.8H7408c827.1,0,871.7,1.6,1089.6,47.8c154.4,33,207.2,51.2,265,93.2
		c177.4,130.4,303.8,344.2,346.7,586.9c58.6,331-13.2,595.2-211.4,781.7c-83.4,78.4-159.4,117.2-304.6,157.6
		c-255,69.4-335.2,74.2-1215.9,74.2l-733.8,0.8V9179.4L6643.6,9179.4z"/>
	<path class="st0" d="M13248.1,11205.9c-204.8-20.6-378-79.2-525-178.3c-144.4-98.2-260-269.1-338.4-503.6
		c-29.8-90.8-72.6-266.6-72.6-299.6v-17.4h1058.2h1058.2l-5.8,84.2c-11.6,166-61,332.6-132.9,452.4
		c-102.4,168.4-327.7,331.8-567.9,411.9C13589,11200.1,13393.4,11220.7,13248.1,11205.9z"/>
</g>
</svg>
