<?xml version="1.0" encoding="utf-8"?>
<!-- Generator: Adobe Illustrator 21.1.0, SVG Export Plug-In . SVG Version: 6.00 Build 0)  -->
<svg version="1.1" id="Layer_1" xmlns="http://www.w3.org/2000/svg" xmlns:xlink="http://www.w3.org/1999/xlink" x="0px" y="0px"
	 viewBox="0 0 4247 4246.8" style="enable-background:new 0 0 4247 4246.8;" xml:space="preserve">
<style type="text/css">
	.st0{fill:#FFFFFF;}
</style>
<g transform="translate(-377.041911,4622.925452) rotate(-360.00) scale(0.095238,-0.095238)">
	<path class="st0" d="M25531,48530c-2765-87-5503-693-8044-1779c-3357-1436-6340-3705-8630-6562c-2646-3303-4280-7223-4756-11414
		c-300-2637-124-5355,514-7921c1066-4294,3411-8195,6715-11173c4526-4078,10444-6108,16542-5675c5337,380,10347,2672,14148,6474
		c4511,4510,6860,10675,6495,17046c-314,5479-2609,10598-6495,14484c-3651,3651-8421,5914-13533,6421
		C27524,48526,26499,48560,25531,48530z M27216,47681c947-48,1752-133,2597-274c3782-631,7336-2277,10274-4759
		c589-497,1272-1144,1792-1698c2513-2675,4283-5897,5176-9421c874-3448,874-7122,1-10566c-884-3486-2613-6657-5087-9329
		c-330-356-961-978-1339-1319c-2764-2492-6117-4225-9707-5017c-1244-274-2354-420-3733-491c-332-17-1538-17-1869,0
		c-984,51-1775,134-2624,276c-4138,692-7944,2568-11052,5448c-227,210-783,764-1013,1009c-2784,2961-4659,6606-5433,10563
		c-569,2908-530,5947,115,8832c838,3754,2660,7185,5318,10015c423,451,1043,1048,1527,1471c2145,1874,4669,3313,7366,4202
		c1996,658,3981,1003,6169,1072C25908,47702,27004,47692,27216,47681z"/>
	<path class="st0" d="M20948,41710c-272-7-547-25-709-46c-1150-147-2140-490-2951-1024c-760-500-1347-1179-1695-1962
		c-180-405-319-866-373-1240c-40-276-45-415-43-1061c2-690,3-696,70-950c161-612,427-1150,800-1620c412-520,976-1002,1709-1462
		c805-506,1787-935,3507-1534c799-279,1398-490,1593-564l97-36l265,113c866,371,1694,610,2615,757c119,19,217,37,217,40
		c0,4-109,69-244,145c-943,534-1652,837-3546,1515c-2109,755-2763,1039-3465,1505c-382,253-633,465-847,714
		c-274,320-430,652-504,1073c-24,133-27,643-5,814c87,694,280,1202,613,1614c464,575,1177,928,2208,1094c452,72,1328,83,2068,26
		c415-32,825-103,1297-226c1076-279,2025-733,2775-1329c149-119,272-227,452-396c74-70,139-129,144-131c6-2,9,426,7,1160l-2,1163
		l-152,130c-668,569-1391,967-2295,1264c-702,231-1556,398-2252,440C22131,41706,21174,41716,20948,41710z"/>
	<path class="st0" d="M26728,30843c-615-38-1388-171-2021-347c-1435-401-2706-1078-3841-2049c-363-310-800-747-1110-1109
		c-1076-1256-1788-2672-2162-4304c-120-520-194-991-216-1367c-14-234-14-1325,0-1607c29-602,104-1071,283-1764
		c620-2412,2126-4516,4215-5890c1045-688,2187-1165,3440-1437c721-157,1076-190,2079-190c884,0,1254,27,1800,132
		c1442,275,2752,819,3912,1621c785,544,1512,1218,2107,1955c810,1002,1416,2140,1793,3363c155,502,294,1118,352,1555
		c55,423,80,1007,70,1642c-12,721-39,1033-129,1523c-287,1564-905,2988-1840,4241c-287,384-573,714-936,1078
		c-383,384-692,653-1108,965c-1323,992-2738,1594-4416,1879c-258,44-539,72-965,95C27842,30839,26849,30850,26728,30843z
		 M27720,29116c528-24,764-50,1150-127c2207-443,4120-1725,5344-3584c598-908,986-1841,1217-2924c117-547,147-889,147-1659
		c0-766-30-1108-146-1650c-163-764-388-1410-720-2069c-589-1167-1419-2162-2451-2936c-756-568-1712-1046-2646-1325
		c-406-122-1024-250-1365-283c-668-66-1700-49-2216,35c-2460,405-4499,1748-5811,3828c-127,201-268,454-398,714
		c-275,550-471,1082-620,1675c-122,490-178,818-213,1239c-18,230-18,1325,0,1549c38,447,103,814,233,1318
		c231,889,669,1844,1206,2630c1110,1624,2849,2838,4773,3333c421,108,1112,225,1466,247C26822,29137,27378,29131,27720,29116z"/>
	<path class="st0" d="M26943,28791c-342-8-347-9-667-49c-350-43-596-87-609-108c-10-16,29-83,121-205c109-148,172-252,257-427
		c171-353,215-586,201-1064c-13-490-104-978-250-1344c-370-928-1186-1596-2362-1933c-662-189-1345-272-2240-272
		c-544,0-698,13-1145,100c-121,24-265,46-320,49c-92,5-102,3-136-20c-49-33-73-87-137-302c-104-353-213-826-273-1187
		c-29-178-64-497-55-505c10-9,653-100,848-119c288-29,479-38,961-44c1132-15,2033,57,2829,227c1501,320,2593,893,3355,1761
		c654,744,1037,1695,1170,2906c27,241,37,447,37,730c0,701-86,1190-309,1755C28203,28780,27571,28805,26943,28791z"/>
	<path class="st0" d="M15094,25874c-5-10-10-547-13-1194l-6-1176l172-138c447-358,839-615,1419-932c267-146,407-211,417-195
		c5,7,19,70,32,140c134,731,208,1032,424,1727c38,122,70,232,70,244c0,16-48,44-234,137c-903,452-1530,833-2085,1267
		C15111,25894,15104,25899,15094,25874z"/>
</g>
</svg>
